<svg width="512" height="512" viewBox="0 0 64 64" xmlns="http://www.w3.org/2000/svg">
  <circle cx="32" cy="32" r="32" fill="#0a0a0a"/>
  <path d="M12 52 Q32 60 52 52 V64 H12 Z" fill="#1a1a1a"/>
  <path d="M16 56 L48 56" stroke="#ffffff" stroke-width="0.5" opacity="0.5" stroke-dasharray="2,1"/>
  <path d="M20 28 Q20 50 32 54 Q44 50 44 28 Q44 16 32 16 Q20 16 20 28" fill="#d29d78"/>
  <path d="M26 50 L26 56 Q32 60 38 56 L38 50" fill="#d29d78"/>
  <path d="M20 28 Q20 46 32 54 Q44 46 44 28 L42 28 Q42 42 32 48 Q22 42 22 28 Z" fill="#111111"/>
  <path d="M26 40 Q32 38 38 40 Q38 43 32 43 Q26 43 26 40" fill="#111111"/>
  <path d="M28 45 Q32 47 36 45" stroke="#5e3a28" stroke-width="1" fill="none" stroke-linecap="round"/>
  <g stroke="#d1d1d1" stroke-width="0.8" fill="none">
    <circle cx="27" cy="30" r="4.5"/>
    <circle cx="37" cy="30" r="4.5"/>
    <line x1="31.5" y1="30" x2="32.5" y2="30"/>
  </g>
  <path d="M18 26 C16 18 20 10 32 10 C44 10 48 18 46 26 C48 20 44 12 32 12 C20 12 16 20 18 26 Z" fill="#111111"/>
  <path d="M20 18 Q24 12 28 16 Q32 8 38 16 Q42 14 44 20" fill="#111111"/>
</svg>

